<svg width="11" height="7" viewBox="0 0 11 7" fill="none" xmlns="http://www.w3.org/2000/svg">
<path d="M1.47849 0.327378C1.2014 0.0194951 0.72718 -0.00546372 0.419297 0.271631C0.111415 0.548725 0.0864559 1.02294 0.36355 1.33082L1.47849 0.327378ZM5.42102 5.8291L4.86355 6.33082L5.42102 6.95024L5.97849 6.33082L5.42102 5.8291ZM10.4785 1.33083C10.7556 1.02294 10.7306 0.548725 10.4227 0.271631C10.1149 -0.00546331 9.64064 0.0194955 9.36355 0.327378L10.4785 1.33083ZM0.36355 1.33082L4.86355 6.33082L5.97849 5.32738L1.47849 0.327378L0.36355 1.33082ZM5.97849 6.33082L10.4785 1.33083L9.36355 0.327378L4.86355 5.32738L5.97849 6.33082Z" fill="white"/>
</svg>
