<svg width="6" height="8" viewBox="0 0 6 8" fill="none" xmlns="http://www.w3.org/2000/svg">
<path d="M0.670748 7.12371C0.462929 7.30555 0.441871 7.62143 0.623712 7.82925C0.805553 8.03707 1.12143 8.05813 1.32925 7.87629L0.670748 7.12371ZM5 4L5.32925 4.37629L5.7593 4L5.32925 3.62371L5 4ZM1.32925 0.123712C1.12143 -0.0581294 0.805553 -0.0370706 0.623712 0.170748C0.441871 0.378566 0.462929 0.694447 0.670748 0.876288L1.32925 0.123712ZM1.32925 7.87629L5.32925 4.37629L4.67075 3.62371L0.670748 7.12371L1.32925 7.87629ZM5.32925 3.62371L1.32925 0.123712L0.670748 0.876288L4.67075 4.37629L5.32925 3.62371Z" fill="#502A50"/>
</svg>
