<svg width="164" height="74" viewBox="0 0 164 74" fill="none" xmlns="http://www.w3.org/2000/svg">
<path d="M82.6045 41.3429C82.6045 44.0333 83.3537 45.5999 84.4095 46.6557C85.5334 47.7455 86.9297 48.018 88.2238 48.018C89.4499 48.018 90.8802 47.7455 92.0041 46.6557C93.0599 45.5999 93.775 44.0333 93.775 41.3429V40.8661C93.775 40.1849 93.2301 39.64 92.5831 39.64H91.5954C90.9143 39.64 90.3694 40.1849 90.3694 40.8661V41.3429C90.3694 42.5689 90.1991 43.4884 89.7904 44.0333C89.4839 44.3739 88.8709 44.6464 88.2238 44.6464C86.7594 44.6464 86.0442 43.6247 86.0442 41.3429V31.7049C86.0442 29.4231 86.7934 28.4354 88.2238 28.4354C89.6201 28.4354 90.3694 29.4231 90.3694 31.7049V32.1817C90.3694 32.8628 90.9143 33.4077 91.5954 33.4077H92.5831C93.2301 33.4077 93.775 32.8628 93.775 32.1817V31.7049C93.775 29.1166 93.0599 27.4137 91.97 26.392C90.8462 25.3704 89.4839 25.0638 88.2238 25.0638C86.9297 25.0638 85.5674 25.3704 84.4435 26.392C83.3537 27.4137 82.6045 29.1166 82.6045 31.7049V41.3429Z" fill="#502A50"/>
<path d="M99.5944 26.2899C99.5944 25.6087 99.0154 25.0638 98.3683 25.0638H97.4147C96.7336 25.0638 96.1887 25.6087 96.1887 26.2899V46.7919C96.1887 47.473 96.7336 48.018 97.4147 48.018H98.3683C99.0154 48.018 99.5944 47.473 99.5944 46.7919V26.2899Z" fill="#502A50"/>
<path d="M113.128 41.0704C113.128 39.2995 112.651 37.9032 111.663 36.8474C111.766 36.7452 111.834 36.6771 111.936 36.575C112.992 35.5192 113.366 33.8164 113.366 31.7049C113.366 27.1413 111.902 25.0298 107.713 25.0298H103.422C102.741 25.0298 102.196 25.5747 102.196 26.2558V46.7579C102.196 47.439 102.741 47.9839 103.422 47.9839H104.375C105.022 47.9839 105.567 47.439 105.567 46.7579V38.414H107.1C108.769 38.414 109.722 39.3676 109.722 41.0704V46.7579C109.722 47.439 110.267 47.9839 110.948 47.9839H111.902C112.583 47.9839 113.128 47.439 113.128 46.7579V41.0704ZM105.567 28.4354H107.713C109.484 28.4354 109.995 29.389 109.995 31.7049C109.995 34.0207 109.007 34.9743 107.1 34.9743H105.567V28.4354Z" fill="#502A50"/>
<path d="M139.1 45.8724C139.1 45.1913 138.555 44.6464 137.874 44.6464H132.8V26.2899C132.8 25.6087 132.255 25.0638 131.608 25.0638H130.62C129.939 25.0638 129.394 25.6087 129.394 26.2899V46.7919C129.394 47.473 129.939 48.018 130.62 48.018H137.874C138.555 48.018 139.1 47.473 139.1 46.7919V45.8724Z" fill="#502A50"/>
<path d="M142.481 25.0638C141.8 25.0638 141.255 25.6087 141.255 26.2899V46.7919C141.255 47.473 141.8 48.018 142.481 48.018H149.838C150.519 48.018 151.064 47.473 151.064 46.7919V45.8724C151.064 45.1913 150.519 44.6464 149.838 44.6464H144.627V38.2097H148.918C149.599 38.2097 150.144 37.6648 150.144 36.9836V36.0641C150.144 35.383 149.599 34.8381 148.918 34.8381H144.627V28.4354H149.838C150.519 28.4354 151.064 27.8905 151.064 27.2094V26.2899C151.064 25.6087 150.519 25.0638 149.838 25.0638H142.481Z" fill="#502A50"/>
<path d="M152.447 41.3429C152.447 45.8043 154.32 47.9839 158.067 47.9839C161.677 47.9839 163.686 45.9405 163.686 42.1262C163.686 38.8227 161.404 37.0858 159.156 35.3489H159.19C157.522 34.0548 155.853 32.7266 155.853 30.9897C155.853 29.2187 156.636 28.4354 158.067 28.4354C159.565 28.4354 160.28 29.4571 160.28 31.7049V32.1817C160.28 32.8628 160.825 33.4077 161.506 33.4077H162.46C163.141 33.4077 163.686 32.8628 163.686 32.1817V31.7049C163.686 27.3797 161.745 25.0298 158.067 25.0298C154.457 25.0298 152.447 27.2435 152.447 31.0918C152.447 34.4634 154.797 36.3025 157.045 38.0734V38.0394C158.714 39.3335 160.28 40.5936 160.28 42.1943C160.28 43.9993 159.497 44.6123 158.067 44.6123C157.59 44.6123 157.011 44.5442 156.636 44.1696C156.159 43.7609 155.853 42.9776 155.853 41.3429V40.9001C155.853 40.219 155.274 39.6741 154.627 39.6741H153.673C152.992 39.6741 152.447 40.219 152.447 40.9001V41.3429Z" fill="#502A50"/>
<path d="M127.272 41.3429C127.272 44.0333 126.523 45.5999 125.467 46.6557C124.343 47.7455 122.947 48.018 121.653 48.018C120.427 48.018 118.996 47.7455 117.872 46.6557C116.817 45.5999 116.101 44.0333 116.101 41.3429V40.8661C116.101 40.1849 116.646 39.64 117.293 39.64H118.281C118.962 39.64 119.507 40.1849 119.507 40.8661V41.3429C119.507 42.5689 119.677 43.4884 120.086 44.0333C120.393 44.3739 121.006 44.6464 121.653 44.6464C123.117 44.6464 123.832 43.6247 123.832 41.3429V31.7049C123.832 29.4231 123.083 28.4354 121.653 28.4354C120.256 28.4354 119.507 29.4231 119.507 31.7049V32.1817C119.507 32.8628 118.962 33.4077 118.281 33.4077H117.293C116.646 33.4077 116.101 32.8628 116.101 32.1817V31.7049C116.101 29.1166 116.817 27.4137 117.906 26.392C119.03 25.3704 120.393 25.0638 121.653 25.0638C122.947 25.0638 124.309 25.3704 125.433 26.392C126.523 27.4137 127.272 29.1166 127.272 31.7049V41.3429Z" fill="#3CC1CA"/>
<g clip-path="url(#clip0_160_1723)">
<path d="M44.3136 37.0353C44.3133 38.8246 43.6481 40.5498 42.4474 41.8755C41.2467 43.2011 39.5962 44.0324 37.8171 44.2076C36.0379 44.3828 34.2572 43.8894 32.8214 42.8234C31.3855 41.7574 30.3972 40.195 30.0485 38.4401C29.6998 36.6852 30.0158 34.8632 30.9349 33.3285C31.854 31.7938 33.3106 30.6562 35.0214 30.1368C36.7322 29.6174 38.5748 29.7534 40.1909 30.5184C41.807 31.2834 43.0811 32.6227 43.7653 34.2758C44.1273 35.1507 44.3136 36.0884 44.3136 37.0353Z" fill="#F7AB28"/>
<path d="M37.5686 0.0137939C17.3529 0.0137939 0.961919 16.4173 0.961426 36.6523C0.960933 56.8873 17.3509 73.2894 37.5686 73.2894C43.2091 73.2891 48.7732 71.9843 53.8268 69.4768C58.8804 66.9693 63.2867 63.327 66.7018 58.8341C67.6097 57.1532 68.0852 55.2726 68.0854 53.3618C68.0854 47.0003 62.9328 41.8433 56.5767 41.8433C54.82 41.8456 53.087 42.2503 51.5107 43.0265C49.9344 43.8027 48.5565 44.9297 47.4826 46.3212C47.4833 46.3186 47.4833 46.3159 47.4826 46.3133C46.1838 47.7976 44.5832 48.9872 42.788 49.8026C40.9929 50.618 39.0444 51.0404 37.073 51.0414C29.4246 51.0414 23.2238 44.8353 23.2238 37.1803C23.2238 29.5254 29.4231 23.3212 37.0716 23.3212C38.9591 23.3234 40.8264 23.7117 42.5586 24.4622C44.2908 25.2127 45.8515 26.3096 47.1449 27.6856C48.2185 29.1804 49.6319 30.3982 51.2684 31.2386C52.905 32.0789 54.7177 32.5178 56.557 32.5189C62.9639 32.5189 68.1579 27.3205 68.1579 20.9081C68.156 18.138 67.1644 15.46 65.3622 13.3577C65.2432 13.1803 65.1134 13.0104 64.9736 12.8489C58.4272 5.25217 48.8474 0.348379 38.1178 0.0182352C37.9351 0.0152742 37.752 0.0137939 37.5686 0.0137939Z" fill="url(#paint0_linear_160_1723)"/>
<path d="M2.40966 39.9839C1.59906 40.0332 1.2549 41.8453 1.25293 46.5759C5.46913 62.3676 19.8602 74.0001 36.9681 74.0001C39.0766 74.0006 41.1814 73.8218 43.2596 73.4656C54.6342 70.9784 63.9073 62.8699 68.0268 52.1963C67.4411 46.3844 62.538 41.8478 56.5769 41.8478C55.078 41.8501 53.5941 42.1453 52.2083 42.7168C50.8144 43.7324 49.385 44.7668 47.9186 45.7972C47.7694 45.9686 47.6249 46.1448 47.4852 46.3257C47.4859 46.3231 47.4859 46.3204 47.4852 46.3178C45.6385 48.4277 43.1956 49.9271 40.4792 50.6176C35.5072 53.4996 30.4537 55.5964 25.7889 55.5964C11.5112 55.5939 4.84886 39.8309 2.40966 39.9839Z" fill="url(#paint1_linear_160_1723)"/>
<path d="M24.9206 5.02918C21.9554 5.02756 19.0082 5.48944 16.1854 6.39812C6.4163 13.0567 4.18683e-05 24.2782 4.18683e-05 37.0003C-0.0112619 44.5016 2.26655 51.8274 6.52872 57.9977C11.7422 62.1905 18.2321 64.4717 24.9201 64.4624C38.6618 64.4624 50.2025 55.0338 53.438 42.288C51.0728 42.9618 48.9855 44.3763 47.4822 46.3243C47.483 46.3217 47.483 46.319 47.4822 46.3164C46.1834 47.8007 44.5828 48.9903 42.7877 49.8056C40.9925 50.621 39.044 51.0434 37.0726 51.0445C29.4242 51.0445 23.2234 44.8384 23.2234 37.1834C23.2234 29.5284 29.4232 23.3213 37.0717 23.3213C38.9592 23.3235 40.8265 23.7117 42.5587 24.4623C44.2909 25.2128 45.8516 26.3097 47.145 27.6857C48.843 30.0512 51.3675 31.6913 54.2175 32.2806C52.8414 17.24 40.2514 5.02918 24.9206 5.02918Z" fill="url(#paint2_linear_160_1723)"/>
<path d="M56.5767 41.8453C54.82 41.8476 53.0871 42.2523 51.5108 43.0284C49.9345 43.8045 48.5566 44.9314 47.4826 46.3228C47.4833 46.3203 47.4833 46.3178 47.4826 46.3154C45.9551 48.0608 44.0142 49.3946 41.8378 50.1943C39.6615 50.994 37.3194 51.234 35.0263 50.8925C33.4745 55.0445 33.4861 59.6199 35.059 63.7639C36.6319 67.908 39.6584 71.3372 43.5731 73.4108C51.7545 71.9333 59.0001 67.7623 64.3598 61.8469C65.5338 60.7682 66.4712 59.4572 67.1125 57.9969C67.7538 56.5366 68.0851 54.9589 68.0854 53.3638C68.0854 47.0023 62.9328 41.8453 56.5767 41.8453Z" fill="url(#paint3_linear_160_1723)"/>
<path d="M36.9675 0C23.101 0 11.0165 7.64512 4.69092 18.9529C4.77375 30.2128 13.0346 39.5249 23.8218 41.2339C23.4218 39.9207 23.2191 38.5552 23.2203 37.1824C23.2203 29.5274 29.4211 23.3213 37.0695 23.3213C38.9571 23.3234 40.8243 23.7117 42.5565 24.4622C44.2888 25.2127 45.8495 26.3097 47.1428 27.6857C47.1857 27.7454 47.2296 27.8041 47.274 27.8628C49.584 27.8762 50.1131 26.3251 50.1131 19.742C50.1131 11.8235 46.0665 4.47002 39.9313 0.117944C38.953 0.0403015 37.9646 0.000986976 36.966 0H36.9675Z" fill="url(#paint4_linear_160_1723)"/>
<path d="M68.076 20.9446C68.0758 23.8112 67.0102 26.5753 65.0866 28.6992C63.163 30.8231 60.5189 32.155 57.6684 32.4358C54.818 32.7166 51.9652 31.9263 49.6647 30.2185C47.3643 28.5107 45.7807 26.0076 45.2221 23.196C44.6635 20.3844 45.1697 17.4654 46.6423 15.0067C48.1149 12.5479 50.4486 10.7253 53.1894 9.89324C55.9303 9.0612 58.8824 9.27925 61.4716 10.505C64.0608 11.7307 66.1018 13.8765 67.1978 16.5249C67.7776 17.9262 68.076 19.428 68.076 20.9446Z" fill="#4E143F"/>
</g>
<defs>
<linearGradient id="paint0_linear_160_1723" x1="47.9979" y1="5.53346" x2="34.3366" y2="43.2413" gradientUnits="userSpaceOnUse">
<stop stop-color="#4F254E"/>
<stop offset="1" stop-color="#B577AF"/>
</linearGradient>
<linearGradient id="paint1_linear_160_1723" x1="19.5821" y1="68.8905" x2="58.7289" y2="13.7245" gradientUnits="userSpaceOnUse">
<stop stop-color="#6EBE9F"/>
<stop offset="0.51" stop-color="#53706E"/>
<stop offset="1" stop-color="#4E143F"/>
</linearGradient>
<linearGradient id="paint2_linear_160_1723" x1="20.7946" y1="3.45841" x2="32.4452" y2="63.4732" gradientUnits="userSpaceOnUse">
<stop stop-color="#E62879"/>
<stop offset="0.6" stop-color="#6FAEC4"/>
<stop offset="1" stop-color="#6CC3CB"/>
</linearGradient>
<linearGradient id="paint3_linear_160_1723" x1="33.2232" y1="66.0203" x2="67.721" y2="48.7911" gradientUnits="userSpaceOnUse">
<stop stop-color="#E84B49"/>
<stop offset="1" stop-color="#F29231" stop-opacity="0.99"/>
</linearGradient>
<linearGradient id="paint4_linear_160_1723" x1="-0.231843" y1="28.8503" x2="43.6885" y2="15.9334" gradientUnits="userSpaceOnUse">
<stop stop-color="#E62879"/>
<stop offset="0.36" stop-color="#CC1B70"/>
<stop offset="1" stop-color="#561D53"/>
</linearGradient>
<clipPath id="clip0_160_1723">
<rect width="68.1579" height="74" fill="white"/>
</clipPath>
</defs>
</svg>
