<svg width="9" height="13" viewBox="0 0 9 13" fill="none" xmlns="http://www.w3.org/2000/svg">
<path d="M8.00234 2.07663C8.41285 1.70717 8.44613 1.07488 8.07667 0.664368C7.70721 0.253858 7.07492 0.220579 6.66441 0.590038L8.00234 2.07663ZM1.50004 6.58333L0.831076 5.84004L0.00519369 6.58333L0.831076 7.32663L1.50004 6.58333ZM6.66441 12.5766C7.07492 12.9461 7.70721 12.9128 8.07667 12.5023C8.44613 12.0918 8.41285 11.4595 8.00234 11.09L6.66441 12.5766ZM6.66441 0.590038L0.831076 5.84004L2.16901 7.32663L8.00234 2.07663L6.66441 0.590038ZM0.831076 7.32663L6.66441 12.5766L8.00234 11.09L2.16901 5.84004L0.831076 7.32663Z" fill="#502A50"/>
</svg>
