<svg width="13" height="13" viewBox="0 0 13 13" fill="none" xmlns="http://www.w3.org/2000/svg">
<path d="M12.3467 8.2386L11.2701 7.61689C11.3788 7.03057 11.3788 6.42908 11.2701 5.84275L12.3467 5.22104C12.4706 5.15028 12.5262 5.0037 12.4857 4.86722C12.2052 3.96752 11.7275 3.15374 11.1033 2.47643C11.0073 2.37281 10.8506 2.34754 10.7293 2.4183L9.65266 3.04001C9.20028 2.65081 8.67966 2.35006 8.11608 2.15294V0.912049C8.11608 0.770522 8.01752 0.646686 7.87852 0.616359C6.95101 0.409123 6.00076 0.419232 5.11874 0.616359C4.97974 0.646686 4.88118 0.770522 4.88118 0.912049V2.15547C4.32012 2.35512 3.7995 2.65586 3.3446 3.04254L2.27051 2.42083C2.14667 2.35006 1.99251 2.37281 1.89647 2.47896C1.27224 3.15374 0.794581 3.96752 0.514055 4.86975C0.471091 5.00622 0.529218 5.15281 0.653054 5.22357L1.72967 5.84528C1.621 6.4316 1.621 7.03309 1.72967 7.61942L0.653054 8.24113C0.529218 8.31189 0.473618 8.45847 0.514055 8.59494C0.794581 9.49465 1.27224 10.3084 1.89647 10.9857C1.99251 11.0894 2.1492 11.1146 2.27051 11.0439L3.34712 10.4222C3.7995 10.8114 4.32012 11.1121 4.8837 11.3092V12.5526C4.8837 12.6942 4.98227 12.818 5.12127 12.8483C6.04877 13.0556 6.99903 13.0455 7.88104 12.8483C8.02004 12.818 8.11861 12.6942 8.11861 12.5526V11.3092C8.67966 11.1096 9.20028 10.8088 9.65519 10.4222L10.7318 11.0439C10.8556 11.1146 11.0098 11.0919 11.1058 10.9857C11.7301 10.311 12.2077 9.49718 12.4883 8.59494C12.5262 8.45595 12.4706 8.30936 12.3467 8.2386ZM6.49863 8.75164C5.3841 8.75164 4.47681 7.84435 4.47681 6.72982C4.47681 5.6153 5.3841 4.70801 6.49863 4.70801C7.61315 4.70801 8.52044 5.6153 8.52044 6.72982C8.52044 7.84435 7.61315 8.75164 6.49863 8.75164Z" fill="white"/>
</svg>
