<svg width="16" height="15" viewBox="0 0 16 15" fill="none" xmlns="http://www.w3.org/2000/svg">
<path d="M13.4685 14.796L10.5478 11.8749C10.416 11.7431 10.3428 11.5644 10.3428 11.3769L10.3428 10.8993C9.30871 11.7079 8.00806 12.1884 6.59315 12.1884C3.22727 12.1884 0.5 9.4607 0.5 6.09424C0.5 2.72778 3.22727 4.58956e-05 6.59316 4.60427e-05C9.95904 4.61898e-05 12.6863 2.72778 12.6863 6.09424C12.6863 7.50938 12.2059 8.81026 11.3974 9.84452L11.8749 9.84452C12.0623 9.84452 12.241 9.91776 12.3729 10.0496L15.2935 12.9707C15.5688 13.2461 15.5688 13.6915 15.2935 13.964L14.4645 14.7931C14.1891 15.0685 13.7438 15.0685 13.4685 14.796ZM10.3428 6.09424C10.3428 4.0228 8.66717 2.34397 6.59316 2.34397C4.52207 2.34397 2.84352 4.01987 2.84352 6.09424C2.84352 8.16568 4.51914 9.84452 6.59315 9.84452C8.66424 9.84452 10.3428 8.16861 10.3428 6.09424Z" fill="#502A50"/>
</svg>
