<svg width="16" height="16" viewBox="0 0 16 16" fill="none" xmlns="http://www.w3.org/2000/svg">
<path d="M9.22211 4.44447C10.204 4.44447 10.9999 3.64853 10.9999 2.66669C10.9999 1.68485 10.204 0.888916 9.22211 0.888916C8.24027 0.888916 7.44434 1.68485 7.44434 2.66669C7.44434 3.64853 8.24027 4.44447 9.22211 4.44447Z" fill="white"/>
<path d="M11.0401 11.6577C10.991 11.6247 10.9358 11.6018 10.8777 11.5904C10.8196 11.579 10.7598 11.5793 10.7019 11.5913C10.6439 11.6033 10.5889 11.6268 10.5402 11.6603C10.4914 11.6939 10.4498 11.7368 10.4179 11.7866C9.98823 12.4229 9.46189 12.9882 8.85788 13.4622C8.71121 13.5733 8.16455 13.9955 7.93343 13.9066C7.77343 13.8577 7.86677 13.5422 7.89788 13.4089L8.13343 12.7111C8.23121 12.4266 9.93343 7.37774 10.1201 6.79996C10.3957 5.95552 10.2757 5.12441 9.01788 5.32441C8.67566 5.35996 5.20455 5.80885 5.14232 5.8133C5.08396 5.81709 5.02691 5.83234 4.97444 5.85818C4.92197 5.88402 4.8751 5.91995 4.83652 5.9639C4.79793 6.00785 4.76837 6.05898 4.74954 6.11435C4.73071 6.16972 4.72297 6.22827 4.72677 6.28663C4.73056 6.345 4.74581 6.40204 4.77165 6.45451C4.7975 6.50698 4.83342 6.55385 4.87737 6.59244C4.92132 6.63103 4.97245 6.66058 5.02782 6.67941C5.08319 6.69824 5.14174 6.70598 5.2001 6.70219C5.2001 6.70219 6.53343 6.52885 6.6801 6.51552C6.75523 6.50819 6.83087 6.52275 6.8979 6.55745C6.96493 6.59215 7.0205 6.6455 7.05788 6.71108C7.13841 6.96002 7.12738 7.22954 7.02677 7.47108C6.91121 7.91552 5.08455 13.0622 5.02677 13.36C4.9648 13.6092 4.982 13.8715 5.07599 14.1104C5.16998 14.3494 5.33609 14.5531 5.55121 14.6933C5.95499 14.9624 6.43577 15.092 6.9201 15.0622C7.39102 15.0564 7.85675 14.963 8.29343 14.7866C9.4001 14.3422 10.5557 13.16 11.1645 12.2311C11.217 12.1367 11.2333 12.0265 11.2104 11.921C11.1875 11.8155 11.1269 11.7219 11.0401 11.6577Z" fill="white"/>
</svg>
