<svg width="152" height="264" viewBox="0 0 152 264" fill="none" xmlns="http://www.w3.org/2000/svg">
<path opacity="0.9" fill-rule="evenodd" clip-rule="evenodd" d="M58.1052 12.8986C55.8686 21.809 52.9361 42.0152 55.8686 45.1795H74.755V45.0692C78.318 44.4946 81.5478 42.6451 83.8382 39.8679C86.1286 37.0906 87.3222 33.5765 87.1948 29.9852V15.1701C87.3528 11.3218 85.9761 7.56743 83.365 4.72562C80.7538 1.88381 77.12 0.185131 73.2559 0H71.9576C68.4731 0.121122 65.1504 1.49417 62.604 3.8653C60.0575 6.23643 58.4594 9.44527 58.1052 12.8986Z" fill="url(#paint0_linear_172_1190)"/>
<path opacity="0.9" fill-rule="evenodd" clip-rule="evenodd" d="M79.7457 27.5354C82.9701 23.6835 84.6276 18.7658 84.3903 13.7544C83.4089 -1.3427 64.0425 1.97508 60.2929 9.58908C56.5399 17.2031 56.965 36.5309 61.8308 37.8918C63.7764 38.4465 67.9061 37.1132 72.1049 34.3501L69.4716 54.6357H85.1057L79.7457 27.5388V27.5354Z" fill="#F9F1E3"/>
<path opacity="0.9" fill-rule="evenodd" clip-rule="evenodd" d="M110.322 182.123C97.3734 186.337 83.8633 188.695 70.2167 189.124C58.8236 189.028 47.7911 185.226 38.8755 178.323C54.0412 173.614 66.5317 171.262 76.3434 171.262C86.1517 171.262 97.4814 174.881 110.322 182.123Z" fill="#5A8395"/>
<path fill-rule="evenodd" clip-rule="evenodd" d="M56.8263 186.123C56.9801 185.91 57.1057 185.677 57.2001 185.432C59.2803 180.126 92.3174 122.939 95.6125 112.423H58.3942C55.8952 120.317 44.6395 170.26 43.0473 180.202C38.0493 195.989 27.7453 246.757 26.4197 250.27C25.0906 253.784 32.8298 257.846 34.8892 253.29C40.531 240.335 45.4286 227.139 49.5716 213.745C52.8459 202.321 55.5214 192.04 56.8263 186.123Z" fill="#FFF3DD"/>
<path fill-rule="evenodd" clip-rule="evenodd" d="M82.5341 204.294C94.8913 208.521 140.033 216.165 143.14 217.379C146.247 218.59 149.121 209.69 145.181 207.777C134.162 202.639 122.796 198.274 111.167 194.713C102.733 192.464 95.0545 190.486 89.886 189.386C90.3198 169.735 92.3262 122.607 91.0071 112.423H64.0919C65.3554 122.178 75.9771 193.364 77.9452 200.558C78.275 201.724 78.9033 202.717 79.7329 203.395C80.5625 204.066 81.5483 204.384 82.5341 204.294Z" fill="#FFF3DD"/>
<path opacity="0.9" fill-rule="evenodd" clip-rule="evenodd" d="M141.895 205.276C143.355 204.913 144.866 204.801 146.364 204.944C148.05 205.338 149.699 205.862 151.299 206.516C151.078 207.989 148.956 220.979 144.933 245.481C141.674 245.899 140.088 244.992 140.198 242.779C140.312 240.566 140.378 238.682 140.423 237.199L135.955 217.673C135.907 217.5 135.93 217.315 136.017 217.158C136.105 217 136.251 216.883 136.425 216.831L139.217 216.166C140.268 214.765 141.028 213.172 141.449 211.473C141.57 209.982 141.411 208.481 140.979 207.047C140.885 206.695 140.93 206.32 141.104 205.999C141.279 205.679 141.571 205.436 141.919 205.321L141.895 205.276ZM36.6079 253.494C37.2126 254.994 37.5824 256.577 37.7034 258.187C37.6398 260.043 37.4458 261.893 37.1228 263.722H0.445298C-0.491251 260.334 0.0444002 258.498 2.10066 258.231L7.21541 257.502L24.2564 249.287C24.3366 249.251 24.4234 249.232 24.5115 249.23C24.5995 249.229 24.6868 249.246 24.7679 249.28C24.85 249.313 24.9243 249.362 24.9862 249.424C25.0481 249.487 25.0962 249.561 25.1273 249.643L26.2229 252.521C27.626 253.34 29.1984 253.836 30.8226 253.98C32.2396 253.85 33.6081 253.422 34.8419 252.72C34.9991 252.644 35.1703 252.602 35.3448 252.596C35.5193 252.591 35.6931 252.621 35.855 252.685C36.017 252.75 36.1637 252.847 36.2855 252.971C36.4074 253.095 36.5019 253.243 36.5629 253.405C36.5629 253.405 36.6079 253.449 36.6079 253.494Z" fill="#730943"/>
<path fill-rule="evenodd" clip-rule="evenodd" d="M97.407 112.704C84.0589 108.127 69.5905 108.127 56.2425 112.704C51.8221 135.308 40.7763 144.267 38.8755 178.912C60.7483 190.888 87.7492 170.403 110.265 182.064C116.695 165.758 107.68 126.464 97.407 112.704Z" fill="url(#paint1_linear_172_1190)"/>
<path opacity="0.9" fill-rule="evenodd" clip-rule="evenodd" d="M121.88 108.32L110.678 104.957C105.686 146.075 105.229 146.713 104.934 148.62C104.261 152.915 98.4613 156.788 95.6532 159.021C98.4752 163.157 101.963 155.842 105.492 161.066C108.688 165.82 109.773 171.79 116.912 171.225C117.475 171.134 117.982 170.83 118.329 170.377C118.676 169.924 118.836 169.355 118.777 168.787C118.739 168.411 118.607 168.051 118.392 167.74C115.948 162.276 112.973 153.436 113.157 151.175C113.379 148.169 113.986 145.406 121.88 108.32ZM48.8963 72.8806L28.2618 57.0192C25.7687 52.4333 22.6214 48.2347 18.9188 44.5555C17.8614 43.9661 15.9408 43.4114 17.1888 47.1037C18.4403 50.8029 19.5948 54.7553 18.4681 55.7191C17.3448 56.6829 15.2439 54.9217 13.8052 56.5858C12.8553 57.6953 16.5301 60.0251 24.8782 63.551L38.7559 81.5445L48.8963 72.8806Z" fill="#FFF0D5"/>
<path fill-rule="evenodd" clip-rule="evenodd" d="M114.525 86.5034L107.02 78.1842C86.708 90.6751 65.6364 88.199 48.7958 58.8384L22.0645 74.1887C38.4473 101.125 64.9532 115.225 93.8694 99.6332C101.149 95.9044 108.064 91.5089 114.525 86.5034Z" fill="url(#paint2_linear_172_1190)"/>
<path fill-rule="evenodd" clip-rule="evenodd" d="M81.2889 38.8962L64.4214 43.0953C64.4214 74.7254 55.1867 94.8952 50.433 118.148H95.992C96.641 126.166 97.0207 134.429 97.2417 142.893H131.336C123.662 98.0886 107.35 63.4137 82.404 38.8754H81.2889V38.8962Z" fill="url(#paint3_linear_172_1190)"/>
<path opacity="0.1" fill-rule="evenodd" clip-rule="evenodd" d="M89.3252 72.4974C90.5129 92.2234 89.8044 107.284 87.2069 117.677H96.6631C95.5503 102.437 93.0952 87.3209 89.3252 72.4974Z" fill="black"/>
<path fill-rule="evenodd" clip-rule="evenodd" d="M75.7424 24.962C75.0175 33.3315 75.3117 42.9064 77.4864 45.1796H96.5858C97.6504 25.365 87.3757 33.0456 87.3757 14.4123C86.7209 13.7235 87.6489 13.1896 87.0571 12.611L85.9259 9.2701C82.7147 2.14745 78.0047 1.07974 73.0249 1.07974C70.5259 0.910017 68.0332 1.4893 65.8758 2.74119C63.7183 3.99308 61.9973 5.85877 60.9398 8.09218C62.4561 13.7235 68.4094 14.5673 73.7043 18.0632C74.3284 17.5176 75.135 17.2172 75.9701 17.2194C76.6954 17.2953 77.3853 17.5669 77.9635 18.0042C78.5418 18.4416 78.9859 19.0276 79.2468 19.6976C79.5077 20.3675 79.5752 21.0954 79.4419 21.8008C79.3086 22.5061 78.9796 23.1615 78.4914 23.6945C77.8392 24.4097 76.9412 24.8624 75.9701 24.9654H75.7424V24.962Z" fill="url(#paint4_linear_172_1190)"/>
<defs>
<linearGradient id="paint0_linear_172_1190" x1="70.9223" y1="0" x2="70.9223" y2="45.1795" gradientUnits="userSpaceOnUse">
<stop offset="0.26" stop-color="#C04B1F"/>
<stop offset="1" stop-color="#FFB800"/>
</linearGradient>
<linearGradient id="paint1_linear_172_1190" x1="75.6504" y1="109.272" x2="75.6504" y2="182.821" gradientUnits="userSpaceOnUse">
<stop stop-color="#996D99"/>
<stop offset="1" stop-color="#5FA1B7"/>
</linearGradient>
<linearGradient id="paint2_linear_172_1190" x1="93.7376" y1="60.3199" x2="42.4572" y2="101.029" gradientUnits="userSpaceOnUse">
<stop stop-color="#640733"/>
<stop offset="1" stop-color="#810D55"/>
</linearGradient>
<linearGradient id="paint3_linear_172_1190" x1="90.8827" y1="38.8754" x2="90.8827" y2="142.897" gradientUnits="userSpaceOnUse">
<stop stop-color="#830E57"/>
<stop offset="1" stop-color="#650733"/>
</linearGradient>
<linearGradient id="paint4_linear_172_1190" x1="78.8031" y1="1.04874" x2="78.8031" y2="45.1762" gradientUnits="userSpaceOnUse">
<stop stop-color="#B83505"/>
<stop offset="1" stop-color="#FFCE49"/>
</linearGradient>
</defs>
</svg>
