<svg width="145" height="208" viewBox="0 0 145 208" fill="none" xmlns="http://www.w3.org/2000/svg">
<path fill-rule="evenodd" clip-rule="evenodd" d="M61.2439 35.4531C57.8228 31.8034 56.0071 26.9671 56.1938 22.0016C57.239 7.16275 78.1889 10.4337 82.2607 17.9017C86.3324 25.3662 85.8538 44.3536 80.6243 45.6995C78.5303 46.2128 74.0503 44.9121 69.5 42.1996L72.3646 62.1305H55.4899L61.2439 35.4565V35.4531Z" fill="#B28B67"/>
<path fill-rule="evenodd" clip-rule="evenodd" d="M89.1471 7.56461C88.9943 6.96009 88.6859 6.40721 88.2531 5.96213C87.8204 5.51705 87.2788 5.19563 86.6833 5.03052C86.3851 4.97592 86.0796 4.97592 85.7815 5.03052H85.5841C85.5744 4.94254 85.5744 4.85374 85.5841 4.76577C85.5365 4.55603 85.4786 4.34628 85.4071 4.14342C85.1383 3.45918 84.7265 2.84715 84.1956 2.34171C83.2134 1.35354 81.926 0.734739 80.5475 0.588131C79.7989 0.533117 79.0502 0.639707 78.3457 0.897586C77.9782 1.02481 77.6175 1.17266 77.2704 1.34458C77.107 1.4718 76.9301 1.57495 76.7429 1.65403C76.6068 1.65403 76.389 1.34458 76.3005 1.27581C75.14 0.409336 73.721 -0.0307773 72.2781 0.0311135C70.6786 -0.116737 69.0826 0.264924 67.7247 1.12108C67.4389 1.33426 67.1666 1.56119 66.9114 1.80876L66.5132 2.21105L66.2716 2.4758C66.1627 2.63053 66.2716 2.67523 66.0096 2.4758C65.3508 2.0676 64.5752 1.89559 63.8078 1.98755C63.3586 2.04944 62.923 2.17666 62.5112 2.36578C62.3581 2.36578 62.028 2.6546 61.8953 2.67523C61.7625 2.6993 61.412 2.43454 61.2589 2.38641C60.4216 2.07461 59.5177 1.99159 58.6385 2.14572C57.7231 2.30388 56.8485 2.65116 56.0658 3.16692C55.7017 3.39385 55.3818 3.68611 55.1197 4.03339C55.0161 4.19788 54.8989 4.35317 54.7692 4.49757C54.7692 4.49757 54.548 4.67637 54.5276 4.7864C54.179 4.58557 53.8106 4.42193 53.4284 4.29815C52.9245 4.15372 52.3907 4.15372 51.8868 4.29815C50.9612 4.67293 50.141 5.26777 49.4911 6.03109C49.1473 6.40587 48.8445 6.81504 48.5892 7.25515C48.4565 7.45802 48.3476 7.67464 48.2591 7.89813C48.2219 8.01525 48.1704 8.12727 48.106 8.23166C48.0377 8.32694 47.935 8.39118 47.8201 8.41045C47.0416 8.67787 46.3477 9.15019 45.81 9.77874C45.2722 10.4073 44.91 11.1693 44.7608 11.9864C44.7746 12.0752 44.7746 12.1657 44.7608 12.2546H43.9032C43.5357 12.3405 43.1817 12.4746 42.8482 12.6534C42.2035 12.9898 41.6308 13.4515 41.163 14.0121C40.6952 14.5726 40.3416 15.2209 40.1224 15.9199C39.6528 17.3709 39.6936 18.9388 40.2313 20.3657C40.3226 20.597 40.433 20.8201 40.5614 21.0328C40.5614 21.1669 40.6703 21.1668 40.5614 21.2975C40.4967 21.4522 40.4218 21.6001 40.3402 21.7445C39.7684 23.0476 39.5711 24.4883 39.7685 25.8981C39.8535 26.3038 39.9931 26.6889 40.187 27.0534C40.2757 27.2422 40.3941 27.4152 40.5376 27.5657L40.7587 27.8098L40.8915 27.9439C40.8915 27.9439 41.0004 27.9439 40.8915 28.1193C40.7792 28.2981 40.6703 28.6109 40.5818 28.8551L40.3198 29.5874C40.1632 30.0895 40.0373 30.6018 39.9454 31.121C39.7412 32.1319 39.8569 33.1806 40.2755 34.1192C40.4866 34.5181 40.7789 34.8673 41.1331 35.1439C41.2988 35.2813 41.4833 35.3936 41.681 35.4774C41.681 35.4774 41.9022 35.4774 41.9464 35.6321C41.9775 35.7795 41.9775 35.9318 41.9464 36.0791C41.7252 37.0934 41.7252 38.149 41.9464 39.1668C42.2527 40.0676 42.838 40.8481 43.6173 41.388C44.6197 41.966 45.7759 42.2125 46.9239 42.0929C48.0719 41.9732 49.1541 41.4935 50.0185 40.7209C50.5392 41.2363 51.1964 41.5884 51.9107 41.7348C52.625 41.8812 53.3661 41.8157 54.0444 41.5461C54.8415 41.3313 55.5837 40.946 56.2207 40.4162C56.8577 39.8865 57.3747 39.2247 57.7367 38.4757C58.0051 38.7473 58.3312 38.9536 58.6904 39.0787C59.0495 39.2038 59.4321 39.2445 59.8092 39.1977C60.186 39.1481 60.5463 39.0111 60.8621 38.7976C61.178 38.5841 61.4407 38.2998 61.6298 37.9668C61.8037 37.6264 61.9155 37.2572 61.9599 36.8768C61.9736 36.6765 61.9736 36.4754 61.9599 36.2751C62.0172 36.0175 62.1137 35.7705 62.2458 35.5427C62.4248 35.0812 62.5294 34.5936 62.5555 34.0986V33.2975C62.5249 33.0693 62.5249 32.838 62.5555 32.6098C62.1094 32.6588 61.6582 32.6059 61.2351 32.4551C60.8355 32.2996 60.4802 32.0468 60.2005 31.7192C59.5982 31.0213 59.1626 30.1926 58.9244 29.2986C58.5324 28.3749 58.474 27.3413 58.7596 26.3785C59.0451 25.4157 59.6563 24.5848 60.4864 24.031C61.9862 23.5817 63.5702 23.4992 65.1078 23.7903C66.2274 24.031 67.4831 26.5204 67.5478 26.7645C67.6124 27.0087 67.5478 27.074 67.7009 27.1668C67.854 27.2528 68.47 27.0087 68.6912 26.8333C69.0371 26.5025 69.3207 26.1111 69.5284 25.678C70.0368 24.7581 70.4355 23.7805 70.716 22.7657C70.9338 21.9886 71.0665 21.1875 71.3524 20.5445C71.6054 19.7818 72.11 19.1299 72.7817 18.6981C73.5569 18.2749 74.3764 17.9404 75.2251 17.701C76.0386 17.4385 76.7878 17.0049 77.4235 16.4288C77.5595 16.2996 77.6847 16.1593 77.7979 16.0093C77.7979 15.8752 77.9714 15.6311 78.1041 15.5623C78.2368 15.497 78.6316 15.7686 78.8086 15.8752C79.6724 16.4715 80.4181 17.2261 81.007 18.0998C81.5855 18.9457 82.0857 19.8465 82.5043 20.7886C82.7051 21.5795 83.0386 22.3325 83.4912 23.0098C84.2974 23.3263 85.1781 23.3956 86.0231 23.2092C86.5927 22.9574 87.0749 22.5396 87.4081 22.0093C87.5997 21.6246 87.6538 21.1849 87.5613 20.7646C87.5613 20.5239 87.4081 20.3004 87.3639 20.0528C87.2972 19.6541 87.0979 19.2902 86.799 19.0213C86.6488 18.8959 86.4752 18.8023 86.2885 18.7462C86.6884 18.3727 87.0161 17.9273 87.255 17.4328C87.5023 16.8905 87.6653 16.313 87.7382 15.7205C87.7901 15.2586 87.6972 14.792 87.4728 14.3864C87.1665 13.9875 86.7752 13.6643 86.3294 13.4305C86.946 12.9419 87.4814 12.3569 87.9152 11.6975C88.3945 11.1335 88.7516 10.4745 88.9638 9.76272C89.1759 9.05095 89.2384 8.30221 89.1471 7.56461Z" fill="url(#paint0_linear_172_1203)"/>
<path fill-rule="evenodd" clip-rule="evenodd" d="M46.5102 170.538C54.6471 167.253 83.1609 156.997 96.927 154.076C100.716 153.282 104.512 152.521 108.314 151.794C119.007 149.717 124.567 169.397 114.255 170.905C88.5646 174.671 52.1603 178.553 49.0456 178.984C44.6963 179.578 41.377 172.59 46.5102 170.538Z" fill="#B28B67"/>
<path fill-rule="evenodd" clip-rule="evenodd" d="M74.6206 159.439C70.5754 158.635 66.8641 157.92 63.6746 157.364C43.1042 153.793 37.1008 142.856 40.6556 118.996H78.5545C84.7388 120.757 116.93 134.15 133.608 141.315C144.669 146.023 141.184 163.031 134.937 167.451C134.934 167.566 134.898 167.676 134.834 167.771C134.77 167.866 134.68 167.941 134.575 167.987C100.857 181.849 74.2832 174.683 65.4033 176.914L61.292 164.036L74.6206 159.439Z" fill="url(#paint1_linear_172_1203)"/>
<path fill-rule="evenodd" clip-rule="evenodd" d="M49.9105 168.62C48.3328 168.689 46.7789 169.024 45.3067 169.603C43.7085 170.451 42.1852 171.437 40.7472 172.543L57.5745 207.453C60.989 206.898 62.3316 205.581 61.6263 203.509C61.0369 201.785 60.4644 200.056 59.9088 198.321L59.2477 178.559C59.242 178.424 59.1969 178.294 59.118 178.185C59.0391 178.077 58.9301 177.994 58.8047 177.948C58.7204 177.919 58.6311 177.908 58.5423 177.914L55.5265 178.09C54.1532 177.08 53.0047 175.791 52.1562 174.301C51.6144 172.885 51.369 171.368 51.4304 169.848C51.4162 169.48 51.2609 169.133 50.9975 168.879C50.734 168.625 50.3832 168.486 50.0196 168.489L49.9105 168.62Z" fill="#FFC834"/>
<path fill-rule="evenodd" clip-rule="evenodd" d="M87.7808 161.348C80.0984 158.212 53.1615 148.283 40.1745 145.538C36.4446 144.756 32.8293 143.995 29.4123 143.361C19.3035 141.38 14.0684 160.28 23.7982 161.739C48.0619 165.354 82.4344 169.097 85.3787 169.511C89.491 170.057 92.6335 163.329 87.7808 161.348Z" fill="#B28B67"/>
<path fill-rule="evenodd" clip-rule="evenodd" d="M65.2048 152.402C68.9537 151.615 72.4075 150.916 75.3684 150.376C94.439 146.844 100.048 136.117 96.7022 112.677H61.5705C55.8292 114.411 26.0119 127.57 10.534 134.565C0.304466 139.197 3.51183 155.91 9.32256 160.25C9.32239 160.36 9.3512 160.467 9.40608 160.562C9.46097 160.657 9.53994 160.735 9.63495 160.789C40.8407 174.286 65.5207 167.245 73.7752 169.542L77.59 156.874L65.2048 152.402Z" fill="url(#paint2_linear_172_1203)"/>
<path fill-rule="evenodd" clip-rule="evenodd" d="M91.0034 161.118C92.5079 161.187 93.9847 161.523 95.3713 162.104C96.8966 162.972 98.3492 163.961 99.7185 165.054C99.1222 166.351 93.7905 178.025 83.7234 200.081C80.4717 199.524 79.2411 198.203 79.8685 196.124C80.496 194.049 81.0784 192.302 81.5048 190.915L82.1288 171.11C82.1288 171.022 82.1463 170.934 82.1803 170.853C82.2143 170.771 82.2642 170.697 82.327 170.635C82.3898 170.572 82.4643 170.523 82.5463 170.489C82.6283 170.456 82.7162 170.439 82.8048 170.439L85.6474 170.619C86.9706 169.737 88.0271 168.51 88.7028 167.072C89.3785 165.634 89.6478 164.039 89.4815 162.46C89.4788 162.285 89.5108 162.112 89.5756 161.95C89.6405 161.787 89.737 161.64 89.8595 161.515C89.982 161.39 90.1281 161.291 90.2894 161.222C90.4506 161.154 90.6237 161.119 90.7988 161.118H91.0068H91.0034Z" fill="#FFC834"/>
<path opacity="0.9" fill-rule="evenodd" clip-rule="evenodd" d="M24.1739 111.154H38.5774C29.6593 139.783 24.857 154.962 24.1739 156.695C22.5697 160.65 25.9575 166.654 27.3858 169.877C22.7042 171.964 23.1941 164.209 17.2637 166.943C11.868 169.454 7.74185 174.01 1.49748 170.165C1.22437 169.927 1.01324 169.627 0.882263 169.29C0.751266 168.953 0.704315 168.589 0.745407 168.229C0.785309 167.87 0.913528 167.526 1.11874 167.228C1.32396 166.93 1.59981 166.687 1.92183 166.52C6.98288 163.054 14.2967 156.984 15.3007 154.986C16.622 152.304 19.582 137.692 24.1739 111.154ZM110.819 108.465L130.332 127.448C135.325 129.473 140.019 132.164 144.287 135.447C145.115 136.427 146.005 138.315 142.058 137.472C138.111 136.626 134.144 135.914 133.43 137.163C132.716 138.404 134.834 140.316 133.43 141.939C132.536 143.019 129.566 139.566 124.512 131.581L104.219 119.669L110.819 108.465Z" fill="#B28B67"/>
<path fill-rule="evenodd" clip-rule="evenodd" d="M65.0074 50.5264L70.9881 49.4938C81.2958 75.2494 99.2971 98.6349 124.992 119.657L105.586 143.216C79.909 113.275 64.0643 82.37 65.0074 50.5264Z" fill="url(#paint3_linear_172_1203)"/>
<path fill-rule="evenodd" clip-rule="evenodd" d="M39.6941 125.31H92.347C80.0926 95.2726 73.9654 69.7439 73.9654 48.7348L58.0792 46.3345C45.6913 66.6916 42.1724 91.7312 39.6941 125.314V125.31Z" fill="#DDE3E9"/>
<path fill-rule="evenodd" clip-rule="evenodd" d="M57.7496 46.3345H58.7957L64.4871 46.5781L68.3582 57.7108C68.7573 71.3207 71.1385 98.7073 75.4982 139.871H40.8028C40.8028 142.723 41.0472 145.583 41.2467 148.481H15.4738C19.3277 104.472 33.4116 70.4231 57.729 46.3345H57.7496Z" fill="url(#paint4_linear_172_1203)"/>
<path opacity="0.1" fill-rule="evenodd" clip-rule="evenodd" d="M43.0639 103.2C44.0224 121.018 46.4072 133.305 50.2247 140.057H40.8782C40.4264 127.727 41.1441 115.379 43.0208 103.2H43.0639Z" fill="black"/>
<path opacity="0.2" fill-rule="evenodd" clip-rule="evenodd" d="M48.1186 118.996L66.0206 110.571V118.996H48.1186Z" fill="white"/>
<defs>
<linearGradient id="paint0_linear_172_1203" x1="64.4408" y1="0.0001681" x2="64.4408" y2="42.1238" gradientUnits="userSpaceOnUse">
<stop stop-color="#131235"/>
<stop offset="1" stop-color="#651F38"/>
</linearGradient>
<linearGradient id="paint1_linear_172_1203" x1="90.2414" y1="118.996" x2="90.2414" y2="176.914" gradientUnits="userSpaceOnUse">
<stop stop-color="#98C449"/>
<stop offset="1" stop-color="#2E9C71"/>
</linearGradient>
<linearGradient id="paint2_linear_172_1203" x1="50.7509" y1="112.677" x2="50.7509" y2="169.542" gradientUnits="userSpaceOnUse">
<stop stop-color="#B5CB1A"/>
<stop offset="1" stop-color="#2E9C71"/>
</linearGradient>
<linearGradient id="paint3_linear_172_1203" x1="94.9805" y1="49.4938" x2="94.9805" y2="143.216" gradientUnits="userSpaceOnUse">
<stop stop-color="#FF4735"/>
<stop offset="1" stop-color="#FF9E05"/>
</linearGradient>
<linearGradient id="paint4_linear_172_1203" x1="45.486" y1="46.3345" x2="45.486" y2="148.481" gradientUnits="userSpaceOnUse">
<stop stop-color="#FF3F39"/>
<stop offset="1" stop-color="#FF9908"/>
</linearGradient>
</defs>
</svg>
