<svg width="512" height="512" viewBox="0 0 512 512" fill="none" xmlns="http://www.w3.org/2000/svg">
<g clip-path="url(#clip0_319_1618)">
<path d="M321.391 256.225C321.39 267.658 317.14 278.68 309.468 287.15C301.796 295.62 291.251 300.931 279.884 302.05C268.517 303.17 257.14 300.017 247.966 293.207C238.792 286.396 232.477 276.413 230.249 265.201C228.021 253.988 230.04 242.347 235.912 232.542C241.785 222.736 251.092 215.468 262.022 212.149C272.952 208.831 284.725 209.7 295.051 214.588C305.377 219.475 313.517 228.032 317.888 238.594C320.201 244.184 321.391 250.175 321.391 256.225" fill="#F7AB28"/>
<path d="M278.296 19.6883C149.134 19.6883 44.4094 124.494 44.4062 253.779C44.4031 383.064 149.122 487.86 278.296 487.86C314.334 487.858 349.885 479.521 382.173 463.501C414.461 447.48 442.614 424.209 464.434 395.502C470.235 384.763 473.273 372.747 473.274 360.539C473.274 319.894 440.353 286.945 399.743 286.945C388.519 286.96 377.447 289.545 367.375 294.505C357.304 299.464 348.5 306.665 341.639 315.555C341.644 315.539 341.644 315.521 341.639 315.505C333.34 324.988 323.114 332.589 311.644 337.798C300.175 343.008 287.726 345.707 275.13 345.714C226.263 345.714 186.645 306.062 186.645 257.152C186.645 208.243 226.253 168.604 275.121 168.604C287.181 168.618 299.111 171.099 310.178 175.894C321.246 180.689 331.218 187.697 339.481 196.489C346.341 206.039 355.371 213.82 365.827 219.189C376.283 224.559 387.865 227.362 399.617 227.369C440.552 227.369 473.737 194.156 473.737 153.186C473.725 135.488 467.389 118.377 455.875 104.945C455.115 103.812 454.285 102.726 453.392 101.694C411.566 53.1572 350.359 21.826 281.806 19.7166C280.638 19.6977 279.468 19.6883 278.296 19.6883V19.6883Z" fill="url(#paint0_linear_319_1618)"/>
<path d="M53.6586 275.064C48.4795 275.38 46.2806 286.958 46.268 317.182C73.2061 418.078 165.154 492.4 274.459 492.4C287.931 492.404 301.379 491.262 314.657 488.985C387.331 473.094 446.578 421.288 472.899 353.092C469.157 315.959 437.83 286.973 399.743 286.973C390.167 286.988 380.686 288.874 371.832 292.526C362.926 299.015 353.793 305.623 344.424 312.207C343.471 313.302 342.547 314.427 341.655 315.584C341.659 315.567 341.659 315.55 341.655 315.533C329.856 329.014 314.248 338.593 296.892 343.005C265.125 361.419 232.838 374.816 203.033 374.816C111.81 374.8 69.2431 274.087 53.6586 275.064Z" fill="url(#paint1_linear_319_1618)"/>
<path d="M197.485 51.7321C178.54 51.7217 159.71 54.6728 141.675 60.4785C79.2579 103.022 38.2631 174.718 38.2631 256.002C38.1909 303.929 52.7443 350.735 79.9761 390.158C113.286 416.946 154.751 431.522 197.482 431.462C285.28 431.462 359.016 371.221 379.688 289.786C364.576 294.091 351.24 303.129 341.636 315.574C341.641 315.558 341.641 315.54 341.636 315.524C333.337 325.007 323.111 332.608 311.641 337.818C300.172 343.027 287.723 345.726 275.127 345.733C226.26 345.733 186.642 306.081 186.642 257.171C186.642 208.262 226.254 168.604 275.121 168.604C287.181 168.618 299.111 171.099 310.178 175.894C321.246 180.689 331.218 187.697 339.481 196.489C350.33 211.602 366.46 222.081 384.669 225.846C375.877 129.75 295.437 51.7321 197.485 51.7321Z" fill="url(#paint2_linear_319_1618)"/>
<path d="M399.743 286.958C388.519 286.972 377.447 289.558 367.376 294.516C357.305 299.475 348.501 306.675 341.639 315.565C341.643 315.549 341.643 315.533 341.639 315.517C331.879 326.67 319.478 335.191 305.573 340.301C291.668 345.41 276.704 346.944 262.053 344.761C252.139 371.289 252.213 400.523 262.262 427C272.311 453.477 291.648 475.387 316.66 488.635C368.933 479.195 415.227 452.546 449.47 414.751C456.971 407.859 462.961 399.483 467.058 390.153C471.156 380.823 473.272 370.743 473.274 360.552C473.274 319.906 440.353 286.958 399.743 286.958V286.958Z" fill="url(#paint3_linear_319_1618)"/>
<path d="M274.456 19.6C185.86 19.6 108.65 68.4461 68.235 140.694C68.7642 212.635 121.544 272.132 190.466 283.051C187.91 274.661 186.615 265.937 186.623 257.165C186.623 208.256 226.241 168.604 275.108 168.604C287.168 168.618 299.098 171.099 310.166 175.894C321.233 180.689 331.205 187.697 339.468 196.489C339.742 196.871 340.023 197.246 340.306 197.621C355.065 197.706 358.446 187.796 358.446 145.735C358.446 95.1425 332.591 48.1598 293.392 20.3535C287.142 19.8575 280.827 19.6063 274.446 19.6H274.456Z" fill="url(#paint4_linear_319_1618)"/>
<path d="M473.214 153.419C473.213 171.735 466.405 189.395 454.114 202.965C441.824 216.535 424.93 225.045 406.718 226.839C388.506 228.633 370.279 223.583 355.581 212.672C340.883 201.76 330.765 185.768 327.196 167.804C323.627 149.84 326.861 131.19 336.27 115.48C345.679 99.7711 360.589 88.1259 378.101 82.8099C395.613 77.4938 414.475 78.887 431.017 86.7184C447.56 94.5497 460.601 108.259 467.603 125.181C471.308 134.134 473.214 143.729 473.214 153.419" fill="#4E143F"/>
</g>
<defs>
<linearGradient id="paint0_linear_319_1618" x1="344.931" y1="54.9544" x2="257.646" y2="295.877" gradientUnits="userSpaceOnUse">
<stop stop-color="#4F254E"/>
<stop offset="1" stop-color="#B577AF"/>
</linearGradient>
<linearGradient id="paint1_linear_319_1618" x1="163.377" y1="459.754" x2="413.493" y2="107.288" gradientUnits="userSpaceOnUse">
<stop stop-color="#6EBE9F"/>
<stop offset="0.51" stop-color="#53706E"/>
<stop offset="1" stop-color="#4E143F"/>
</linearGradient>
<linearGradient id="paint2_linear_319_1618" x1="171.123" y1="41.6961" x2="245.562" y2="425.142" gradientUnits="userSpaceOnUse">
<stop stop-color="#E62879"/>
<stop offset="0.6" stop-color="#6FAEC4"/>
<stop offset="1" stop-color="#6CC3CB"/>
</linearGradient>
<linearGradient id="paint3_linear_319_1618" x1="250.533" y1="441.416" x2="470.946" y2="331.336" gradientUnits="userSpaceOnUse">
<stop stop-color="#E84B49"/>
<stop offset="1" stop-color="#F29231" stop-opacity="0.99"/>
</linearGradient>
<linearGradient id="paint4_linear_319_1618" x1="36.7825" y1="203.93" x2="317.398" y2="121.402" gradientUnits="userSpaceOnUse">
<stop stop-color="#E62879"/>
<stop offset="0.36" stop-color="#CC1B70"/>
<stop offset="1" stop-color="#561D53"/>
</linearGradient>
<clipPath id="clip0_319_1618">
<rect width="435.474" height="472.8" fill="white" transform="translate(38.2631 19.6)"/>
</clipPath>
</defs>
</svg>
