<?xml version="1.0" standalone="no"?>
<!DOCTYPE svg PUBLIC "-//W3C//DTD SVG 20010904//EN"
 "http://www.w3.org/TR/2001/REC-SVG-20010904/DTD/svg10.dtd">
<svg version="1.0" xmlns="http://www.w3.org/2000/svg"
 width="700.000000pt" height="700.000000pt" viewBox="0 0 700.000000 700.000000"
 preserveAspectRatio="xMidYMid meet">
<metadata>
Created by potrace 1.14, written by Peter Selinger 2001-2017
</metadata>
<g transform="translate(0.000000,700.000000) scale(0.100000,-0.100000)"
fill="#000000" stroke="none">
<path d="M3509 6726 c-2 -2 -39 -7 -82 -11 -88 -7 -79 -6 -237 -34 -169 -30
-166 -30 -285 -62 -819 -224 -1520 -762 -1946 -1494 -35 -60 -135 -261 -181
-365 -66 -147 -173 -498 -193 -632 -4 -23 -8 -45 -10 -48 -2 -3 -6 -24 -9 -48
-24 -170 -24 -173 -32 -276 -8 -103 -8 -455 0 -531 3 -27 8 -75 12 -105 3 -30
7 -66 10 -80 2 -14 9 -56 14 -94 6 -37 12 -71 14 -75 2 -3 7 -22 10 -41 12
-73 57 -244 91 -347 164 -489 423 -905 794 -1273 292 -290 592 -496 976 -670
174 -79 495 -180 670 -210 28 -5 61 -11 75 -14 40 -7 169 -26 240 -34 140 -15
609 -8 730 13 14 2 83 13 153 25 330 55 723 197 1025 370 128 73 314 198 398
269 17 14 42 34 55 45 129 102 383 354 464 461 71 94 118 182 154 290 38 116
42 136 48 282 8 179 -22 324 -98 477 -277 558 -981 737 -1484 378 -79 -56
-116 -91 -228 -215 -292 -323 -743 -466 -1166 -370 -404 91 -749 406 -876 798
-61 189 -76 433 -37 615 123 576 605 970 1188 970 321 0 645 -138 854 -363
201 -217 249 -257 395 -331 274 -138 623 -137 900 1 236 118 427 339 508 588
31 93 35 115 45 212 31 295 -49 540 -262 802 -66 81 -241 259 -325 331 -29 25
-63 54 -75 64 -68 60 -373 276 -390 276 -2 0 -35 19 -72 42 -244 148 -675 307
-979 362 -17 3 -41 8 -55 10 -24 5 -43 8 -140 20 -25 4 -63 9 -85 13 -42 6
-570 14 -576 9z"/>
<path d="M3645 4114 c-130 -27 -234 -84 -329 -180 -50 -50 -130 -167 -116
-170 3 0 -1 -8 -8 -16 -11 -14 -36 -85 -49 -142 -2 -12 -4 -59 -5 -106 -1
-287 196 -541 475 -613 74 -19 229 -20 304 -1 219 56 401 239 457 460 20 77
23 201 7 279 -14 66 -70 190 -110 245 -140 191 -397 291 -626 244z"/>
</g>
</svg>
